<mxfile host="app.diagrams.net" modified="2023-12-15T18:14:16.457Z" agent="Mozilla/5.0 (Windows NT 10.0; Win64; x64) AppleWebKit/537.36 (KHTML, like Gecko) Chrome/120.0.0.0 Safari/537.36" etag="HxvpJ5UmMK4ETvCGD16u" version="22.1.11" type="device">
  <diagram id="RX8j35DpNfyJVcPfTA0C" name="Page-1">
    <mxGraphModel dx="882" dy="578" grid="1" gridSize="10" guides="1" tooltips="1" connect="1" arrows="1" fold="1" page="1" pageScale="1" pageWidth="850" pageHeight="1100" math="0" shadow="0">
      <root>
        <mxCell id="0" />
        <mxCell id="1" parent="0" />
        <mxCell id="HZqexC2twXzQQpgwQL6j-2" style="edgeStyle=orthogonalEdgeStyle;rounded=0;orthogonalLoop=1;jettySize=auto;html=1;exitX=0;exitY=0.5;exitDx=0;exitDy=0;entryX=1;entryY=0.5;entryDx=0;entryDy=0;" edge="1" parent="1" source="ehj2s4JNe59QxrL474BH-5" target="HZqexC2twXzQQpgwQL6j-1">
          <mxGeometry relative="1" as="geometry" />
        </mxCell>
        <mxCell id="HZqexC2twXzQQpgwQL6j-10" style="edgeStyle=orthogonalEdgeStyle;rounded=0;orthogonalLoop=1;jettySize=auto;html=1;exitX=0.5;exitY=1;exitDx=0;exitDy=0;entryX=0.5;entryY=0;entryDx=0;entryDy=0;" edge="1" parent="1" source="ehj2s4JNe59QxrL474BH-5" target="HZqexC2twXzQQpgwQL6j-5">
          <mxGeometry relative="1" as="geometry" />
        </mxCell>
        <mxCell id="ehj2s4JNe59QxrL474BH-5" value="User" style="rounded=1;whiteSpace=wrap;html=1;" parent="1" vertex="1">
          <mxGeometry x="240" y="40" width="120" height="60" as="geometry" />
        </mxCell>
        <mxCell id="HZqexC2twXzQQpgwQL6j-4" style="edgeStyle=orthogonalEdgeStyle;rounded=0;orthogonalLoop=1;jettySize=auto;html=1;exitX=0;exitY=0.5;exitDx=0;exitDy=0;entryX=1;entryY=0.5;entryDx=0;entryDy=0;" edge="1" parent="1" source="tRZn9HF9jJtS-_6O3h12-22" target="ehj2s4JNe59QxrL474BH-5">
          <mxGeometry relative="1" as="geometry" />
        </mxCell>
        <mxCell id="tRZn9HF9jJtS-_6O3h12-22" value="CDN" style="rounded=1;whiteSpace=wrap;html=1;" parent="1" vertex="1">
          <mxGeometry x="440" y="40" width="120" height="60" as="geometry" />
        </mxCell>
        <mxCell id="HZqexC2twXzQQpgwQL6j-3" style="edgeStyle=orthogonalEdgeStyle;rounded=0;orthogonalLoop=1;jettySize=auto;html=1;exitX=1;exitY=0.5;exitDx=0;exitDy=0;entryX=0;entryY=0.5;entryDx=0;entryDy=0;" edge="1" parent="1" source="HZqexC2twXzQQpgwQL6j-1" target="ehj2s4JNe59QxrL474BH-5">
          <mxGeometry relative="1" as="geometry" />
        </mxCell>
        <mxCell id="HZqexC2twXzQQpgwQL6j-1" value="DNS" style="rounded=1;whiteSpace=wrap;html=1;" vertex="1" parent="1">
          <mxGeometry x="40" y="40" width="120" height="60" as="geometry" />
        </mxCell>
        <mxCell id="HZqexC2twXzQQpgwQL6j-17" style="edgeStyle=orthogonalEdgeStyle;rounded=0;orthogonalLoop=1;jettySize=auto;html=1;exitX=1;exitY=0.5;exitDx=0;exitDy=0;" edge="1" parent="1" source="HZqexC2twXzQQpgwQL6j-5" target="HZqexC2twXzQQpgwQL6j-7">
          <mxGeometry relative="1" as="geometry" />
        </mxCell>
        <mxCell id="HZqexC2twXzQQpgwQL6j-5" value="Load balancer" style="rounded=1;whiteSpace=wrap;html=1;" vertex="1" parent="1">
          <mxGeometry x="240" y="160" width="120" height="60" as="geometry" />
        </mxCell>
        <mxCell id="HZqexC2twXzQQpgwQL6j-22" style="edgeStyle=orthogonalEdgeStyle;rounded=0;orthogonalLoop=1;jettySize=auto;html=1;exitX=0.5;exitY=0;exitDx=0;exitDy=0;entryX=0;entryY=0.5;entryDx=0;entryDy=0;" edge="1" parent="1" source="HZqexC2twXzQQpgwQL6j-6" target="HZqexC2twXzQQpgwQL6j-5">
          <mxGeometry relative="1" as="geometry" />
        </mxCell>
        <mxCell id="HZqexC2twXzQQpgwQL6j-6" value="Read server" style="rounded=1;whiteSpace=wrap;html=1;" vertex="1" parent="1">
          <mxGeometry x="120" y="280" width="120" height="60" as="geometry" />
        </mxCell>
        <mxCell id="HZqexC2twXzQQpgwQL6j-18" style="edgeStyle=orthogonalEdgeStyle;rounded=0;orthogonalLoop=1;jettySize=auto;html=1;exitX=0;exitY=0.5;exitDx=0;exitDy=0;entryX=1;entryY=0.5;entryDx=0;entryDy=0;" edge="1" parent="1" source="HZqexC2twXzQQpgwQL6j-7" target="HZqexC2twXzQQpgwQL6j-8">
          <mxGeometry relative="1" as="geometry" />
        </mxCell>
        <mxCell id="HZqexC2twXzQQpgwQL6j-19" style="edgeStyle=orthogonalEdgeStyle;rounded=0;orthogonalLoop=1;jettySize=auto;html=1;exitX=0.5;exitY=1;exitDx=0;exitDy=0;entryX=0.5;entryY=0;entryDx=0;entryDy=0;" edge="1" parent="1" source="HZqexC2twXzQQpgwQL6j-7" target="HZqexC2twXzQQpgwQL6j-9">
          <mxGeometry relative="1" as="geometry" />
        </mxCell>
        <mxCell id="HZqexC2twXzQQpgwQL6j-7" value="Write server" style="rounded=1;whiteSpace=wrap;html=1;" vertex="1" parent="1">
          <mxGeometry x="360" y="280" width="120" height="60" as="geometry" />
        </mxCell>
        <mxCell id="HZqexC2twXzQQpgwQL6j-21" style="edgeStyle=orthogonalEdgeStyle;rounded=0;orthogonalLoop=1;jettySize=auto;html=1;exitX=0.5;exitY=0;exitDx=0;exitDy=0;entryX=0.5;entryY=1;entryDx=0;entryDy=0;" edge="1" parent="1" source="HZqexC2twXzQQpgwQL6j-8" target="HZqexC2twXzQQpgwQL6j-6">
          <mxGeometry relative="1" as="geometry" />
        </mxCell>
        <mxCell id="HZqexC2twXzQQpgwQL6j-8" value="RDBMS" style="rounded=1;whiteSpace=wrap;html=1;" vertex="1" parent="1">
          <mxGeometry x="120" y="400" width="120" height="60" as="geometry" />
        </mxCell>
        <mxCell id="HZqexC2twXzQQpgwQL6j-20" style="edgeStyle=orthogonalEdgeStyle;rounded=0;orthogonalLoop=1;jettySize=auto;html=1;exitX=0;exitY=0.5;exitDx=0;exitDy=0;entryX=1;entryY=0.5;entryDx=0;entryDy=0;" edge="1" parent="1" source="HZqexC2twXzQQpgwQL6j-9" target="HZqexC2twXzQQpgwQL6j-6">
          <mxGeometry relative="1" as="geometry" />
        </mxCell>
        <mxCell id="HZqexC2twXzQQpgwQL6j-9" value="Blob storage" style="rounded=1;whiteSpace=wrap;html=1;" vertex="1" parent="1">
          <mxGeometry x="360" y="400" width="120" height="60" as="geometry" />
        </mxCell>
      </root>
    </mxGraphModel>
  </diagram>
</mxfile>
